# xmcd
#
# Track frame offsets: 
#        150
#        29007
#        56982
#        111620
#        128475
#        147050
#        171068
#        199560
#        219127
#        244095
#        267220
#        281175
#        323295
#
# Disc length: 4869 seconds
#
# Revision: 0
# Processed by: cddbd v1.5.2PL0 Copyright (c) Steve Scherf et al.
# Submitted via: ExactAudioCopy v0.99pb5
#
DISCID=be13030d
DTITLE=Jimi Hendrix - Little Wing [CD2]
DYEAR=2009
DGENRE=Acid Blues
TTITLE0=01. Jelly 929
TTITLE1=02. Electric Church Red House
TTITLE2=03. Hear My Train a-Comin' (Electric)
TTITLE3=04. The Star Spangled Banner
TTITLE4=05. South Saturn Delta
TTITLE5=06. Power of Soul
TTITLE6=07. Message to the Universe
TTITLE7=08. The Stars that Play with Laughing Sam's Dice
TTITLE8=09. Midnight
TTITLE9=10. Pall Gap
TTITLE10=11. Midnight Lightning
TTITLE11=12. Little Wing (Cafe Au Go-Go 1968.03.17)
TTITLE12=13. Stray Blues
EXTD=
EXTT0=
EXTT1=
EXTT2=
EXTT3=
EXTT4=
EXTT5=
EXTT6=
EXTT7=
EXTT8=
EXTT9=
EXTT10=
EXTT11=
EXTT12=
PLAYORDER=
